<svg width="73" height="73" viewBox="0 0 73 73" fill="none" xmlns="http://www.w3.org/2000/svg">
<circle cx="36.313" cy="36.313" r="36.313" fill="white"/>
<path d="M29.1785 13.54C29.1785 13.54 21.7093 14.0738 16.8245 18.1532C16.8016 18.1627 16.7741 18.177 16.7512 18.1913C15.9035 19.0062 15.2665 20.2691 14.4784 22.08C13.6902 23.891 12.8562 26.2214 12.0956 28.8282C10.5788 34.0465 9.34617 40.4515 9.34617 46.48C9.34159 46.6945 9.392 46.9042 9.49281 47.09C11.2066 50.2211 14.3592 52.113 17.3011 53.3044C20.243 54.4958 22.9603 54.9724 24.3396 55.02C24.7291 55.0343 25.1002 54.8485 25.3293 54.5244L28.1887 50.4069C30.4936 50.974 33.1972 51.36 36.3269 51.36C39.4567 51.36 42.1603 50.974 44.4652 50.4069L47.3245 54.5244C47.5537 54.8485 47.9248 55.0343 48.3143 55.02C49.6936 54.9724 52.4109 54.4958 55.3528 53.3044C58.2946 52.113 61.4473 50.2211 63.1611 47.09C63.2619 46.9042 63.3123 46.6945 63.3077 46.48C63.3077 40.4515 62.0751 34.0465 60.5583 28.8282C59.7976 26.2214 58.9637 23.891 58.1755 22.08C57.3873 20.2691 56.7504 19.0062 55.9027 18.1913C55.8798 18.177 55.8523 18.1627 55.8293 18.1532C50.9446 14.0738 43.4754 13.54 43.4754 13.54C43.3883 13.5305 43.3058 13.5305 43.2188 13.54C42.8109 13.5972 42.4673 13.8736 42.3023 14.2644C42.3023 14.2644 41.9036 15.1747 41.6424 16.4757C39.3559 16.0944 37.4313 15.98 36.3269 15.98C35.2226 15.98 33.298 16.0944 31.0114 16.4757C30.7502 15.1747 30.3516 14.2644 30.3516 14.2644C30.15 13.7879 29.678 13.4972 29.1785 13.54ZM28.4453 16.1707C28.5324 16.4185 28.592 16.652 28.6653 16.9332C26.0213 17.5718 23.1252 18.6154 20.4171 20.3644C19.9909 20.5503 19.7114 20.9792 19.6977 21.4605C19.6885 21.9371 19.9497 22.3803 20.3621 22.59C20.7791 22.7949 21.274 22.7329 21.6268 22.4232C27.0615 18.9204 33.9762 18.42 36.3269 18.42C38.6777 18.42 45.5924 18.9204 51.0271 22.4232C51.3799 22.7329 51.8748 22.7949 52.2918 22.59C52.7042 22.3803 52.9654 21.9371 52.9562 21.4605C52.9425 20.9792 52.663 20.5503 52.2368 20.3644C49.5286 18.6154 46.6326 17.5718 43.9886 16.9332C44.0619 16.652 44.1215 16.4185 44.2086 16.1707C45.5466 16.3422 50.7475 17.0714 54.2897 19.9832C54.5188 20.2024 55.3161 21.4224 56.0493 23.1094C56.7825 24.7965 57.5523 26.9934 58.2855 29.5144C59.7152 34.4325 60.8699 40.4992 60.9249 46.0607C59.5914 48.3053 57.0895 49.9732 54.5096 51.0169C52.1635 51.9653 49.9731 52.3894 48.8275 52.5038L46.848 49.7207C47.8561 49.3823 48.7634 49.0154 49.5607 48.6532C52.5209 47.2997 54.1064 45.87 54.1064 45.87C54.5921 45.4173 54.6334 44.6405 54.198 44.1354C53.7627 43.6302 53.0158 43.5873 52.5301 44.04C52.5301 44.04 51.302 45.2076 48.6076 46.4419C47.6178 46.8947 46.4172 47.3426 45.0517 47.7382C44.7355 47.7 44.4193 47.7954 44.1719 48.005C41.9861 48.5579 39.3879 48.92 36.3269 48.92C33.243 48.92 30.6403 48.5245 28.4453 47.9669C28.1979 47.7954 27.8955 47.7239 27.6022 47.7763C26.2321 47.3807 25.0407 46.8947 24.0463 46.4419C21.3519 45.2076 20.1238 44.04 20.1238 44.04C19.858 43.7827 19.4915 43.6731 19.134 43.735C18.6804 43.8065 18.3046 44.1449 18.1809 44.6072C18.0526 45.0647 18.1992 45.5603 18.5475 45.87C18.5475 45.87 20.133 47.2997 23.0932 48.6532C23.8905 49.0154 24.7978 49.3823 25.8059 49.7207L23.8263 52.5038C22.6808 52.3894 20.4904 51.9653 18.1443 51.0169C15.5644 49.9732 13.0624 48.3053 11.729 46.0607C11.784 40.4992 12.9387 34.4325 14.3684 29.5144C15.1016 26.9934 15.8714 24.7965 16.6046 23.1094C17.3378 21.4224 18.1351 20.2024 18.3642 19.9832C21.9063 17.0714 27.1073 16.3422 28.4453 16.1707ZM28.7019 30.62C25.7097 30.62 23.4231 33.4461 23.4231 36.72C23.4231 39.994 25.7097 42.82 28.7019 42.82C31.6942 42.82 33.9808 39.994 33.9808 36.72C33.9808 33.4461 31.6942 30.62 28.7019 30.62ZM43.9519 30.62C40.9597 30.62 38.6731 33.4461 38.6731 36.72C38.6731 39.994 40.9597 42.82 43.9519 42.82C46.9442 42.82 49.2308 39.994 49.2308 36.72C49.2308 33.4461 46.9442 30.62 43.9519 30.62ZM28.7019 33.06C30.2462 33.06 31.6346 34.6041 31.6346 36.72C31.6346 38.836 30.2462 40.38 28.7019 40.38C27.1577 40.38 25.7693 38.836 25.7693 36.72C25.7693 34.6041 27.1577 33.06 28.7019 33.06ZM43.9519 33.06C45.4962 33.06 46.8846 34.6041 46.8846 36.72C46.8846 38.836 45.4962 40.38 43.9519 40.38C42.4077 40.38 41.0193 38.836 41.0193 36.72C41.0193 34.6041 42.4077 33.06 43.9519 33.06Z" fill="black"/>
</svg>
