<svg width="73" height="73" viewBox="0 0 73 73" fill="none" xmlns="http://www.w3.org/2000/svg">
<circle cx="36.313" cy="36.313" r="36.313" fill="white"/>
<path fill-rule="evenodd" clip-rule="evenodd" d="M36 9C21.085 9 9 21.085 9 36C9 47.9268 16.7344 58.0518 27.4658 61.6201C28.8193 61.8662 29.3115 61.04 29.3115 60.3193C29.3115 59.6777 29.2852 57.9814 29.2764 55.7314C21.7617 57.3574 20.1797 52.1104 20.1797 52.1104C18.9492 48.9902 17.1826 48.1553 17.1826 48.1553C14.7305 46.4854 17.3672 46.5205 17.3672 46.5205C20.0742 46.7139 21.498 49.2979 21.498 49.2979C23.9063 53.4287 27.8174 52.2334 29.3555 51.5479C29.6016 49.7988 30.3047 48.6123 31.0693 47.9355C25.0752 47.2588 18.7734 44.9385 18.7734 34.5938C18.7734 31.6406 19.8281 29.2324 21.5508 27.3428C21.2783 26.666 20.3467 23.915 21.8145 20.1973C21.8145 20.1973 24.082 19.4766 29.2412 22.9658C31.3945 22.3682 33.7061 22.0693 36 22.0605C38.2939 22.0693 40.6055 22.3682 42.7588 22.9658C47.918 19.4766 50.1768 20.1973 50.1768 20.1973C51.6533 23.915 50.7305 26.666 50.4492 27.3428C52.1807 29.2324 53.2178 31.6406 53.2178 34.5938C53.2178 44.9648 46.9072 47.2412 40.8955 47.918C41.8623 48.7441 42.7236 50.3965 42.7236 52.9102C42.7236 56.5225 42.6973 59.4316 42.6973 60.3193C42.6973 61.04 43.1807 61.8838 44.5518 61.6201C55.2744 58.043 63 47.9268 63 36C63 21.085 50.915 9 36 9Z" fill="black"/>
</svg>
