<svg width="73" height="73" viewBox="0 0 73 73" fill="none" xmlns="http://www.w3.org/2000/svg">
<circle cx="36.313" cy="36.313" r="36.313" fill="white"/>
<path d="M62.4308 31.4752H60.3112V31.366H36.6288V41.8915H51.5C49.3304 48.0187 43.5006 52.417 36.6288 52.417C27.9097 52.417 20.8405 45.3479 20.8405 36.6288C20.8405 27.9097 27.9097 20.8405 36.6288 20.8405C40.6535 20.8405 44.315 22.3588 47.103 24.8389L54.5458 17.396C49.8462 13.0161 43.5598 10.315 36.6288 10.315C22.097 10.315 10.315 22.097 10.315 36.6288C10.315 51.1606 22.097 62.9426 36.6288 62.9426C51.1606 62.9426 62.9426 51.1606 62.9426 36.6288C62.9426 34.8644 62.761 33.1422 62.4308 31.4752Z" fill="#FFC107"/>
<path d="M13.349 24.381L21.9944 30.7213C24.3337 24.9297 29.999 20.8405 36.6288 20.8405C40.6535 20.8405 44.3151 22.3588 47.103 24.8389L54.5459 17.396C49.8462 13.0161 43.5598 10.315 36.6288 10.315C26.5217 10.315 17.7566 16.0211 13.349 24.381Z" fill="#FF3D00"/>
<path d="M36.6288 62.9426C43.4256 62.9426 49.6015 60.3414 54.2709 56.1115L46.1267 49.2199C43.4848 51.2211 40.2009 52.417 36.6288 52.417C29.7846 52.417 23.9732 48.0529 21.7839 41.9626L13.2029 48.5739C17.5579 57.0956 26.4019 62.9426 36.6288 62.9426Z" fill="#4CAF50"/>
<path d="M62.4308 31.4752H60.3112V31.366H36.6288V41.8915H51.5C50.458 44.8347 48.5647 47.3727 46.1228 49.2212L46.1267 49.2186L54.2709 56.1102C53.6946 56.6338 62.9426 49.7857 62.9426 36.6288C62.9426 34.8644 62.761 33.1422 62.4308 31.4752Z" fill="#1976D2"/>
</svg>
